# xmcd
#
# Track frame offsets: 
#        151
#        17646
#        46467
#        66736
#        89327
#        103734
#        124151
#        140672
#        156233
#        179432
#        196625
#        215022
#        235575
#
# Disc length: 3384 seconds
#
# Revision: 1
# Processed by: cddbd v1.5.2PL0 Copyright (c) Steve Scherf et al.
# Submitted via: ExactAudioCopy v0.95a5
#
DISCID=bd0d360d
DTITLE=任贤齐 - 男人心之自由篇
DYEAR=2002
DGENRE=Pop
TTITLE0=我是一只小小鸟
TTITLE1=小雪
TTITLE2=伤心太平洋
TTITLE3=兄弟
TTITLE4=对面的女孩看过来
TTITLE5=浪漫手牵手
TTITLE6=浪花一朵朵
TTITLE7=开心就好
TTITLE8=日出东方
TTITLE9=烧得厉害
TTITLE10=春天花会开
TTITLE11=依靠
TTITLE12=沧海一声笑
EXTD=
EXTT0=
EXTT1=
EXTT2=
EXTT3=
EXTT4=
EXTT5=
EXTT6=
EXTT7=
EXTT8=
EXTT9=
EXTT10=
EXTT11=
EXTT12=
PLAYORDER=
